# xmcd
#
# Track frame offsets:
#	150
#	24156
#	50020
#	66789
#	101668
#	133350
#	164810
#	199595
#	229349
#	254579
#	271929
#	288823
#	307595
#
# Disc length: 4335 seconds
#
# Revision: 0
# Processed by: cddbd v1.5.1PL2 Copyright (c) Steve Scherf et al.
# Submitted via: EasyCDDAExtractor 8.2.2.1
#
DISCID=bb10ed0d
DTITLE=Various Artist - DMC 2006-01-04
DYEAR=1900
DGENRE=
TTITLE0=DANIELLE PARIS - I CAN'T STAND IT(CASCADA RMX)
TTITLE1=MAAYA - VELVET RAIN(NOEL DE CLARKE CLUB MIX)
TTITLE2=MANDARYNA - A SPACEMAN CAME TRAVELLING(ALBUM VERSION)
TTITLE3=IN-GRID - MAMA MIA(FRENCH VERSION)(RIYYATTI and DJ MAXWELL VOCAL REMIX)
TTITLE4=STEVE MURANO - HIT THE GROUND(MAIN MIX)
TTITLE5=MADONNA - HUNG UP(BILL HAMEL REMIX)
TTITLE6=MARIAH CAREY - DON'T FORGET ABOUT US(RALPHI ROSARIO MIX)
TTITLE7=BEATS AND STYLES FEAT SCHOLAR and MILLA - DANCE DANCE DANCE(GROOVEREBELS
TTITLE7=MIX)
TTITLE8=A-MAN FEAT T.MIKE - BOOM(ORIGINAL VERSION)
TTITLE9=SUGABABES - UGLY(ALBUM VERSION)
TTITLE10=SIMPLY RED - SOMETHING GOT ME STARTED(ALBUM VERSION)
TTITLE11=C.C. CATCH - HOUSE OF MYSTIC LIGHTS(LONG VERSION DANCE MIX)
TTITLE12=DA LUXE - I GOTTA DO(RADIO)
EXTD=
EXTT0=
EXTT1=
EXTT2=
EXTT3=
EXTT4=
EXTT5=
EXTT6=
EXTT7=
EXTT8=
EXTT9=
EXTT10=
EXTT11=
EXTT12=
PLAYORDER=
